<svg width="512" height="512" viewBox="0 0 512 512" fill="none" xmlns="http://www.w3.org/2000/svg">
<g clip-path="url(#clip0_55_7)">
<path d="M256 85.3333C279.564 85.3333 298.667 66.2308 298.667 42.6667C298.667 19.1025 279.564 0 256 0C232.436 0 213.333 19.1025 213.333 42.6667C213.333 66.2308 232.436 85.3333 256 85.3333Z" fill="white"/>
<path d="M256 298.667C279.564 298.667 298.667 279.564 298.667 256C298.667 232.436 279.564 213.333 256 213.333C232.436 213.333 213.333 232.436 213.333 256C213.333 279.564 232.436 298.667 256 298.667Z" fill="white"/>
<path d="M256 512C279.564 512 298.667 492.898 298.667 469.333C298.667 445.769 279.564 426.667 256 426.667C232.436 426.667 213.333 445.769 213.333 469.333C213.333 492.898 232.436 512 256 512Z" fill="white"/>
</g>
<defs>
<clipPath id="clip0_55_7">
<rect width="512" height="512" fill="white"/>
</clipPath>
</defs>
</svg>
